#!OML:ASF F:\VICON\USERDATA\INSTALL\rory3\rory3.ASF
:FULLY-SPECIFIED
:DEGREES
59
root 0.6846214565866209 18.06263053158273 15.736966338270168 -4.425360883353676 -5.761029159270121 0.0812605185464399
lfemur -9.616180024265532 -3.280386469897131 -24.367566187451104
ltibia 25.896008234689425
lfoot -9.121105094606952 2.3245870967512383
ltoes -1.7763085044154883
rfemur -15.575765304386813 3.335191232603759 22.133949571243516
rtibia 73.99852968518394
rfoot 2.3261865549280163 -5.280079179420174
rtoes 13.538184535104808
lowerback nan 1.9503565541566363 0.7329823306119604
upperback 0.5598917210478538 2.4899615744892234 0.4007273545058534
thorax -5.1585183898302756 1.2031903201758642 -0.016833603057884727
lowerneck -16.439369365201042 -2.860305080761354 -2.300568571942638
upperneck 20.972622167928353 -3.7637541489694715 1.4447198636953873
head 9.386989350611257 -1.7603002732281405 0.3555418021364832
lclavicle -1.3108663297031219e-15 4.622270640055494e-16
lhumerus -34.913655482999154 5.313354399932082 81.39405555832806
lradius 20.37390893058452
lwrist 3.533065348339213
lhand -28.321673522136155 20.74966780154968
lfingers nan
lthumb -1.6473093347892076 50.82070306762994
rclavicle -1.7859094674477154e-15 9.052698620670008e-17
rhumerus -27.43636166891847 -16.38627758515989 -80.51728627259082
rradius 27.05417980539755
rwrist 2.7091885106570244
rhand -17.786602749657455 nan
rfingers nan
rthumb 8.537501792160553 -7.029079972921124
60
root 0.6813381251886943 18.106531333644686 15.737807983618186 -4.41351126631979 -5.1413840834398234 0.1457428122814015
lfemur -7.475105629384702 -3.518866862249743 -24.847200997091313
ltibia 25.95824463719132
lfoot -9.87017432008046 3.439730544225318
ltoes -1.485899515938276
rfemur -19.733558261062118 2.5664805400524027 22.059826521608652
rtibia 73.53735644736138
rfoot -1.4557537080321037 -5.113927473175383
rtoes 11.25505606587634
lowerback nan 1.46692658770123 0.5197810992936569
upperback 0.624082748839231 1.8848673452022204 0.6765923728307304
thorax -5.1880650299590965 0.9183997063332574 0.47418805547973264
lowerneck -16.511412640796205 -2.814517944467947 -2.490609968591119
upperneck 20.860544764324704 -3.668497708035498 1.4742717861084418
head 9.356557594944325 -1.718288975662659 0.3909283935638006
lclavicle -8.172472657236427e-16 8.378417018484566e-16
lhumerus -33.3495653654698 3.6613987032646174 81.92722782515114
lradius 21.547810898306494
lwrist 4.2630698047220825
lhand -28.580108687568323 20.523953434249787
lfingers nan
lthumb -1.8280336606803087 50.79210738235646
rclavicle -1.407189315069837e-15 3.786535556014374e-16
rhumerus -27.94700209561693 -16.366941145562816 -80.36441028735966
rradius 27.20489366056274
rwrist 2.2807284818946054
rhand -17.762237352334957 nan
rfingers nan
rthumb 8.523402918554856 -7.164484556839603
61
root 0.665251293553599 18.088935550791245 16.2369740885319 -4.215611740341838 -3.9597319289404007 0.312530542558644
lfemur -5.3468713487092625 -3.5262873795917624 -25.290672188874918
ltibia 25.861199248550484
lfoot -10.496261112179074 3.634386870984743
ltoes -1.4660696693556385
rfemur -23.93509137018391 1.7289261880357887 21.710015770849736
rtibia 70.89928347585419
rfoot -4.499013435582103 -5.158823737332628
rtoes 8.924585760620902
lowerback nan 0.9358239988833121 0.0710688926603773
upperback 0.7131632530314718 1.1870455177568071 0.9611959460586473
thorax -5.160351236153692 0.5920825396003728 1.0554679620560086
lowerneck -16.606031102131706 -2.780495633098923 -2.624918720291969
upperneck 20.69147692730989 -3.6007190577075696 1.5095461809645723
head 9.306066848581196 -1.6873550240582693 0.42307860525226115
lclavicle -7.905746163690927e-16 8.742007344126952e-16
lhumerus -31.601873908091147 1.87337706091701 82.41047600551556
lradius 22.791325550102933
lwrist 4.870740380922663
lhand -28.312702965578982 20.99723140934122
lfingers nan
lthumb -1.5933635786952507 51.231666118374775
rclavicle -1.3593061913831947e-15 4.068630511527586e-16
rhumerus -28.408678249903474 -16.35202935235967 -80.21821487054447
rradius 27.271881791953795
rwrist 2.0276333358665823
rhand -17.749936254353873 nan
rfingers nan
rthumb 8.469250713155196 -7.286177726698935
62
root 0.6527309629765865 18.05131857417953 16.80694413138747 -3.8553862822623666 -2.61474493196017 0.6412892878093626
lfemur -3.2045337482920146 -3.382338937009747 -25.893401903179903
ltibia 25.223755731350728
lfoot -10.307620316498806 3.3664120602805685
ltoes -1.783761567289874
rfemur -26.798098267107584 1.2136607419302008 21.320923769985455
rtibia 65.43938640941943
rfoot -7.119195654080752 -6.508451543631118
rtoes 6.04086221637597
lowerback nan 0.42336643927091583 -0.5321704860122036
upperback 0.7644184765871711 0.4955215299713587 1.171064320887395
thorax -5.107658304889731 0.2712566296289233 1.6582285863050648
lowerneck -16.711765845756183 -2.7564842120912827 -2.7206618215640384
upperneck 20.497986723829023 -3.555705922276785 1.5672783641417325
head 9.24565788210731 -1.664056583201976 0.45883223169643694
lclavicle -9.339387220640453e-16 7.685346143130302e-16
lhumerus -29.822102021076052 0.023260730378846795 82.78428990519878
lradius 24.136671350848744
lwrist 5.464414572887618
lhand -27.79690635506369 21.88557008317139
lfingers nan
lthumb -1.1009148195400291 52.059705049328755
rclavicle -1.3999487058737735e-15 3.8431698268279066e-16
rhumerus -28.82320857493649 -16.502755205563755 -80.03756956767157
rradius 27.185804692546863
rwrist 2.013335092478818
rhand -17.770011106350246 nan
rfingers nan
rthumb 8.400630269425363 -7.327925411372152
63
root 0.64141837550907 17.98800390381678 17.802710205249824 -3.3185371604576757 -1.4894802895126358 1.2737915102688695
lfemur -0.8898241732348264 -3.0952041356584528 -26.794834713436273
ltibia 23.421704939213946
lfoot -9.280233729878642 2.457124089324247
ltoes -2.7134154214842328
rfemur -28.758229443463865 1.2420894883339937 20.586503946731984
rtibia 57.193630017156835
rfoot -8.02143128819746 -8.377402620045704
rtoes 3.7263024746647373
lowerback nan -0.006798156795864818 -1.4400163629464846
upperback 0.7839813681242839 -0.12315914403337436 1.1868866428426224
thorax -5.024492898075243 -0.021809450636697814 2.2419763784792996
lowerneck -16.765360838062072 -2.7440170155622874 -2.7698378904516328
upperneck 20.309981950889924 -3.5367397155413136 1.6366376578611357
head 9.182790987973581 -1.6517410736948275 0.49410911916796796
lclavicle -9.526878866179694e-16 7.495480810124942e-16
lhumerus -28.1030001295651 -1.6855243453412017 83.02056141551122
lradius 25.582447215625905
lwrist 6.04461614702729
lhand -27.180315931978978 23.097330882183787
lfingers nan
lthumb -0.48223311966768284 53.260352513114334
rclavicle -1.4497086882451252e-15 3.5238740492671124e-16
rhumerus -29.233528211486583 -16.887928983407466 -79.76686503931663
rradius 26.936116777357384
rwrist 2.243478979082225
rhand -17.82225430868221 nan
rfingers nan
rthumb 8.323817773928115 -7.325208400638701
